<svg id="Capa_1" enable-background="new 0 0 513.258 513.258" height="512" viewBox="0 0 513.258 513.258" width="512" xmlns="http://www.w3.org/2000/svg"><g id="XMLID_598_"><path id="XMLID_270_" d="m461.874 200.627-130.367 35.444v-34.701h-120.197v-27.84h36.439v-30h-104.915v30h38.476v27.84h-83.064v168.358h224.586l142.221-135.879 37.689 14.106 5.258-14.049 5.258-14.048z"/><path id="XMLID_604_" d="m34.316 237.254c-2.743-2.598-4.316-6.255-4.316-10.033 0-7.159 4.789-10.729 6.849-11.932 2.059-1.203 7.522-3.622 13.759-.104l17.639 9.947v-23.762-10.68l-2.902-1.637c-13.718-7.735-30.025-7.612-43.626.332-13.601 7.943-21.719 22.088-21.719 37.837 0 11.979 4.988 23.574 13.686 31.813l54.561 51.679v-41.322z"/></g></svg>